<?xml version="1.0" encoding="UTF-8"?>
<!DOCTYPE svg PUBLIC "-//W3C//DTD SVG 1.1//EN" "http://www.w3.org/Graphics/SVG/1.1/DTD/svg11.dtd">
<!-- Creator: CorelDRAW 2021 (64-Bit Not for commercial use) -->
<svg xmlns="http://www.w3.org/2000/svg" xml:space="preserve" width="109.883mm" height="44.3802mm" version="1.1" style="shape-rendering:geometricPrecision; text-rendering:geometricPrecision; image-rendering:optimizeQuality; fill-rule:evenodd; clip-rule:evenodd"
viewBox="0 0 10988.3 4438.02"
 xmlns:xlink="http://www.w3.org/1999/xlink"
 xmlns:xodm="http://www.corel.com/coreldraw/odm/2003">
 <defs>
  <style type="text/css">
   <![CDATA[
    .fil0 {fill:#FEFEFE}
    .fil4 {fill:#363435}
    .fil2 {fill:#730F13}
    .fil3 {fill:#730F13}
    .fil1 {fill:#363435;fill-rule:nonzero}
   ]]>
  </style>
 </defs>
 <g id="Layer_x0020_1">
  <metadata id="CorelCorpID_0Corel-Layer"/>
  <g id="_1563209798816">
   <rect class="fil0" y="-0" width="10988.3" height="4438.02" rx="168.78" ry="190.07"/>
   <g>
    <g>
     <path class="fil1" d="M3435.62 1069.59l151.89 0 290.5 752.42 -159.49 0 -62.65 -179.2 -296.2 0 -60.75 179.2 -150.95 0 287.65 -752.42zm70.25 149.85l-99.68 289.24 203.16 0 -103.48 -289.24z"/>
     <path id="_1" class="fil1" d="M3912.19 1269.75l248.72 0c65.81,0.69 117.08,15.02 153.79,42.96 36.7,27.95 55.06,81.39 55.06,160.34l0 348.96 -131.96 0 0 -332.2c0,-38.42 -5.69,-64.27 -17.08,-77.54 -11.4,-13.28 -34.82,-19.92 -70.25,-19.92l-106.33 -1.04 0 430.7 -131.95 0 0 -552.26z"/>
     <path id="_2" class="fil1" d="M4754.24 1703.59l140.5 0 0 118.42 -179.42 0c-34.18,0 -67.57,-4.02 -100.16,-12.05 -32.6,-8.04 -61.87,-25.68 -87.81,-52.92 -21.53,-23.06 -38.29,-50.13 -50.31,-81.22 -12.04,-31.09 -19.63,-63.05 -22.79,-95.88 0,-4.89 -0.16,-9.96 -0.48,-15.2 -0.32,-5.24 -0.47,-10.3 -0.47,-15.19 0,-6.29 0.15,-12.58 0.47,-18.87 0.32,-6.28 0.8,-12.57 1.42,-18.86 2.54,-32.14 9.81,-63.58 21.85,-94.31 12.02,-30.74 28.78,-57.64 50.31,-80.7 25.94,-27.24 55.21,-45.06 87.81,-53.44 32.59,-8.38 65.98,-12.58 100.16,-12.58l179.42 -1.04 0 119.46 -140.5 0c-1.9,0.7 -3.96,1.05 -6.18,1.05 -2.21,0 -4.26,0 -6.17,0 -3.79,0 -7.43,0 -10.91,0 -3.48,0 -6.81,0 -9.97,0 -12.66,0 -25,1.05 -37.02,3.14 -12.03,2.1 -23.42,6.64 -34.18,13.63 -23.42,15.37 -39.08,35.98 -46.99,61.82 -7.91,25.85 -11.87,52.75 -11.87,80.7 0.64,27.24 5.07,53.27 13.29,78.07 8.23,24.8 23.42,44.53 45.57,59.21 10.76,6.98 22.15,11.52 34.18,13.62 12.02,2.09 24.36,3.49 37.02,4.19 3.8,0 7.76,0 11.87,0 4.11,0 8.06,0 11.87,0 1.89,0 3.63,0 5.22,0 1.58,0 3,0 4.27,0l0 -1.05z"/>
     <path id="_3" class="fil1" d="M4982.08 1069.59l131 0 0 200.16 117.72 0c64.56,1.39 115.34,16.06 152.37,44.01 37.02,27.94 55.84,81.04 56.48,159.29l0 348.96 -132.91 0 0 -333.24c0,-34.94 -6.32,-59.74 -18.98,-74.41 -12.66,-14.67 -35.76,-22.01 -69.31,-22.01l-105.37 -1.04 0 430.7 -131 0 0 -752.42z"/>
     <path id="_4" class="fil1" d="M5976.97 1755.99c-24.05,26.55 -53.01,46.11 -86.87,58.68 -33.86,12.58 -68.82,18.87 -104.9,18.87 -36.08,0 -70.88,-6.29 -104.43,-18.87 -33.54,-12.57 -62.33,-31.78 -86.38,-57.63 -24.69,-26.55 -43.2,-58.34 -55.55,-95.36 -12.33,-37.03 -18.5,-75.11 -18.5,-114.23 0,-39.12 6.17,-77.2 18.5,-114.23 12.35,-37.02 30.86,-68.81 55.55,-95.36 24.05,-25.85 53,-45.23 86.85,-58.16 33.87,-12.92 68.83,-19.39 104.91,-19.39 35.44,0 70.09,6.47 103.95,19.39 33.86,12.93 62.82,32.31 86.87,58.16 24.67,26.55 43.19,58.34 55.53,95.36 12.35,37.03 18.52,75.11 18.52,114.23 0,39.12 -6.17,77.2 -18.52,114.23 -12.34,37.02 -30.86,68.81 -55.53,95.36l0 -1.05zm-236.39 -51.35c4.43,2.1 8.71,3.84 12.82,5.24 4.11,1.4 8.07,2.45 11.87,3.14 30.37,4.89 58.85,-1.39 85.43,-18.86 26.58,-17.46 44.31,-42.96 53.17,-76.5 3.16,-11.87 5.53,-24.62 7.12,-38.25 1.58,-13.62 2.37,-27.42 2.37,-41.39 -1.26,-30.74 -7.91,-59.91 -19.94,-87.5 -12.02,-27.6 -31.32,-47.69 -57.91,-60.26 -5.69,-2.8 -11.7,-4.89 -18.04,-6.29 -6.32,-1.4 -12.33,-2.44 -18.03,-3.14 -29.11,-2.8 -56.32,4.54 -81.64,22 -25.32,17.47 -42.41,41.92 -51.27,73.36 -3.16,11.88 -5.53,24.28 -7.12,37.2 -1.58,12.93 -2.06,25.68 -1.42,38.25 0.63,32.84 7.44,63.75 20.41,92.74 12.97,29 33.7,49.43 62.18,61.31l0 -1.05z"/>
     <path id="_5" class="fil1" d="M6131.71 1269.75l222.14 0c71.52,0.69 112.98,18.86 124.36,54.49 11.4,35.63 16.78,83.48 16.15,143.57 0,5.59 0,11.17 0,16.76 0,5.59 0,11.53 0,17.82l-126.27 -1.05c0,-3.49 0,-7.34 0,-11.53 0,-4.19 0,-8.03 0,-11.52 0,-51 -3.63,-80.7 -10.92,-89.08 -7.27,-8.38 -33.69,-12.57 -79.26,-12.57 -2.54,0 -4.91,0 -7.12,0 -2.22,0 -4.6,0 -7.12,0l0 445.37 -131.96 0 0 -552.26z"/>
     <path id="_6" class="fil1" d="M6570.3 1706.74l278.16 0c1.26,0.7 2.52,1.04 3.79,1.04 1.27,0 2.54,0 3.8,0 15.82,-0.69 30.38,-4.54 43.67,-11.52 13.29,-6.99 19.93,-21.31 19.93,-42.97 0,-20.26 -6.32,-33.88 -18.98,-40.87 -12.66,-6.98 -26.27,-11.18 -40.83,-12.57 -1.89,0 -3.79,0 -5.69,0 -1.9,0 -3.79,0 -5.69,0l-113.92 -1.05c-53.17,0.7 -95.09,-7.34 -125.8,-24.1 -30.69,-16.77 -46.35,-59.39 -46.98,-127.85 -0.64,-64.28 15.19,-109.69 47.46,-136.23 32.28,-26.55 75.31,-39.83 129.11,-39.83l283.85 -1.04 0 115.27 -233.53 0c-1.9,0.7 -3.64,1.05 -5.22,1.05 -1.59,0 -3.32,0 -5.23,0 -4.43,0 -8.69,0 -12.82,0 -4.11,0 -8.69,0 -13.76,0 -11.39,0.7 -22.31,3.49 -32.74,8.38 -10.45,4.89 -17.25,13.97 -20.42,27.25 -5.06,24.45 -0.63,41.22 13.29,50.3 13.93,9.08 30.06,13.62 48.42,13.62l119.61 -1.05c46.84,0.7 86.07,12.75 117.72,36.16 31.65,23.4 48.42,63.75 50.32,121.03 0,0.7 0,1.23 0,1.58 0,0.35 0,0.87 0,1.57 0.63,44.71 -10.92,85.41 -34.65,122.08 -23.74,36.68 -57.75,55.02 -102.06,55.02l-340.81 0 0 -115.27z"/>
     <path class="fil1" d="M7396.67 1069.59l312.32 0c103.79,0.7 181.33,28.99 232.6,84.88 51.25,55.89 80.37,143.22 87.33,261.99 0.63,10.48 1.11,20.96 1.43,31.44 0.31,10.47 0.15,21.3 -0.48,32.48 -1.26,51.7 -9.5,102.18 -24.68,151.43 -15.19,49.25 -41.77,91 -79.75,125.23 -31.01,27.94 -64.4,45.76 -100.15,53.44 -35.76,7.69 -73.26,11.53 -112.5,11.53l-316.12 0 0 -752.42zm309.48 130.99l-166.13 0 0 490.44 166.13 0c1.26,0.7 2.69,1.05 4.27,1.05 1.58,0 3,0 4.27,0 20.88,0 41.29,-2.28 61.23,-6.82 19.94,-4.54 37.5,-16.24 52.69,-35.1 15.19,-19.56 25.79,-41.57 31.81,-66.02 6,-24.45 9.96,-49.26 11.86,-74.41 0.63,-10.48 0.95,-20.95 0.95,-31.43 0,-10.48 0,-20.96 0,-31.44 0,-10.48 0,-21.49 0,-33.01 0,-11.53 -0.64,-22.88 -1.9,-34.06 -1.27,-24.45 -4.91,-48.56 -10.91,-72.31 -6.02,-23.75 -16.62,-44.71 -31.81,-62.87 -15.19,-18.87 -32.75,-30.74 -52.69,-35.63 -19.94,-4.9 -40.35,-7.34 -61.23,-7.34 -1.27,0 -2.69,0 -4.27,0 -1.58,0 -3.01,0 -4.27,0l0 -1.05z"/>
     <path id="_1_0" class="fil1" d="M8115.31 1269.75l222.14 0c71.52,0.69 112.97,18.86 124.36,54.49 11.4,35.63 16.78,83.48 16.14,143.57 0,5.59 0,11.17 0,16.76 0,5.59 0,11.53 0,17.82l-126.26 -1.05c0,-3.49 0,-7.34 0,-11.53 0,-4.19 0,-8.03 0,-11.52 0,-51 -3.63,-80.7 -10.92,-89.08 -7.27,-8.38 -33.7,-12.57 -79.26,-12.57 -2.54,0 -4.91,0 -7.13,0 -2.21,0 -4.59,0 -7.12,0l0 445.37 -131.95 0 0 -552.26z"/>
     <path id="_2_1" class="fil1" d="M8700.1 1822.01l-138.6 0 0 -552.26 138.6 0 0 552.26zm0 -615.14l-138.6 0 0 -137.28 138.6 0 0 137.28z"/>
     <polygon id="_3_2" class="fil1" points="8949.77,1822.01 8812.11,1822.01 8812.11,1069.59 8949.77,1069.59 "/>
     <polygon id="_4_3" class="fil1" points="9198.49,1822.01 9060.84,1822.01 9060.84,1069.59 9198.49,1069.59 "/>
     <path id="_5_4" class="fil1" d="M9534.55 1822.01c-35.43,0 -69.77,-4.72 -103,-14.15 -33.23,-9.43 -62.5,-29.16 -87.81,-59.21 -20.25,-24.45 -34.96,-52.39 -44.14,-83.83 -9.18,-31.44 -14.72,-63.58 -16.62,-96.41 0,-3.49 0,-6.99 0,-10.48 0,-3.49 0,-6.99 0,-10.48 0,-4.89 0,-9.61 0,-14.15 0,-4.54 0.32,-9.25 0.96,-14.14 1.89,-31.44 7.43,-62.36 16.61,-92.75 9.18,-30.39 23.57,-57.46 43.19,-81.21 25.31,-30.74 54.58,-50.83 87.81,-60.26 33.23,-9.43 67.57,-14.15 103,-14.15l192.72 -1.04 0 115.27 -174.68 0c-36.71,0.7 -66.13,6.81 -88.29,18.34 -22.15,11.53 -33.85,40.34 -35.12,86.45l298.09 -1.04 0 115.27 -298.09 0c1.27,48.2 12.34,77.55 33.23,88.03 20.88,10.47 50.63,15.71 89.24,15.71l175.62 -1.04 0 115.27 -192.72 0z"/>
     <path id="_6_5" class="fil1" d="M10275.03 1822.01l-253.47 0c-74.68,0 -133.07,-23.23 -175.15,-69.69 -42.09,-46.46 -65.03,-110.21 -68.83,-191.25 -1.27,-37.02 2.22,-73.18 10.45,-108.46 8.22,-35.28 22.78,-67.59 43.66,-96.93 25.96,-35.63 55.86,-58.69 89.71,-69.17 33.87,-10.48 70.1,-15.72 108.7,-15.72l112.98 -1.04 0 -200.16 131.95 0 0 752.42zm-131.95 -118.42l0 -314.38c-5.07,0.7 -10.13,1.05 -15.19,1.05 -5.07,0 -9.82,0 -14.25,0 -6.32,0 -12.65,0 -18.98,0 -6.33,0 -12.66,0 -18.99,0 -11.39,0 -22.62,0.17 -33.7,0.52 -11.07,0.35 -22.3,1.23 -33.7,2.62 -10.13,0.7 -19.78,3.84 -28.95,9.43 -9.18,5.59 -17.57,12.23 -25.16,19.91 -13.29,14.68 -22.63,31.62 -28.01,50.83 -5.38,19.21 -8.7,38.6 -9.97,58.16 0,5.59 0,10.83 0,15.72 0,4.89 0,9.78 0,14.67 1.91,74.06 21.05,116.67 57.44,127.85 36.39,11.18 79.9,16.42 130.53,15.72 6.33,-0.7 12.82,-1.05 19.46,-1.05 6.65,0 13.14,0 19.47,0l0 -1.05z"/>
    </g>
    <path class="fil2" d="M3741.6 2867.48c-9.71,42.24 -23.05,82.82 -40.01,121.79 -16.96,38.97 -41.89,71.83 -74.78,98.59 -22.09,17.26 -46.88,30.19 -74.37,38.82 -27.47,8.62 -55.49,13.84 -84.06,15.61 -18.32,0.6 -36.36,0 -54.17,-1.77 -17.76,-1.79 -35.01,-4.75 -51.73,-8.93 -31.25,-7.12 -59,-22.45 -83.26,-45.94 -24.24,-23.51 -39.32,-53.41 -45.25,-89.68 -5.93,-41.64 -1.62,-76.14 12.94,-103.5 14.55,-27.38 35.82,-52.06 63.84,-74.07 -13.44,-11.3 -25.85,-23.04 -37.17,-35.25 -11.33,-12.19 -20.48,-27.21 -27.49,-45.05 -4.85,-11.9 -8.47,-24.4 -10.91,-37.49 -2.41,-13.09 -3.64,-26.47 -3.64,-40.14 -0.54,-4.78 -0.54,-9.82 0,-15.17 0.55,-5.35 1.08,-10.71 1.63,-16.06 7.52,-49.98 27.89,-85.52 61.02,-106.64 33.15,-21.12 70.73,-31.67 112.77,-31.67l195.62 -0.89 0 118.68 -164.92 0c-24.77,0.57 -46.6,8.31 -65.47,23.2 -18.86,14.86 -25.32,38.06 -19.39,69.6 4.84,24.97 15.63,40.74 32.33,47.28 16.72,6.55 34.77,9.82 54.16,9.82 2.68,0 5.38,0 8.08,0 2.69,0 5.37,0 8.09,0 1.61,0 3.1,0 4.44,0 1.35,0 2.84,0 4.45,0l0 108.86c-0.53,0.59 -1.08,0.88 -1.61,0.88 -0.56,0 -1.09,0 -1.64,0 -0.53,0 -1.33,0 -2.41,0 -1.09,0 -2.15,0 -3.23,0 -21.56,0 -41.78,2.39 -60.62,7.14 -18.87,4.76 -31.01,22.32 -36.4,52.64 -3.76,21.43 -0.25,41.36 10.52,59.8 10.77,18.43 25.33,30.63 43.66,36.58 7.54,2.37 15.48,3.87 23.84,4.47 8.36,0.58 16.57,0.89 24.64,0.89 17.8,-1.2 35.3,-5.36 52.55,-12.5 17.25,-7.14 32.35,-17.54 45.27,-31.23 14.55,-14.86 25.61,-31.82 33.13,-50.87 7.56,-19.01 14.02,-38.37 19.42,-57.98 0.55,-1.8 0.95,-3.43 1.19,-4.91 0.29,-1.49 0.69,-2.83 1.24,-4.03l-81.65 -0.88 0 -109.77 281.29 0 0 109.77 -71.94 0zm-202.54 404.55l-137.65 0c-214,0 -389.07,-175.05 -389.07,-389.05l0 -154.44c0,-213.99 175.07,-389.04 389.07,-389.04l137.65 0c213.99,0 389.06,175.05 389.06,389.04l0 154.44c0,214 -175.07,389.05 -389.06,389.05z"/>
    <polygon class="fil1" points="4430.65,2404.95 4430.65,2729.84 4710.81,2729.84 4710.81,2404.95 4863.53,2404.95 4863.53,3206.58 4710.81,3206.58 4710.81,2871.64 4430.65,2871.64 4430.65,3206.58 4277.92,3206.58 4277.92,2404.95 "/>
    <path id="_1_6" class="fil1" d="M5236.75 3206.58c-37.76,0 -74.34,-5.02 -109.74,-15.07 -35.4,-10.05 -66.59,-31.08 -93.55,-63.08 -21.58,-26.05 -37.26,-55.83 -47.04,-89.32 -9.77,-33.5 -15.67,-67.74 -17.7,-102.72 0,-3.72 0,-7.44 0,-11.16 0,-3.72 0,-7.45 0,-11.17 0,-5.21 0,-10.23 0,-15.07 0,-4.84 0.34,-9.86 1.01,-15.07 2.02,-33.5 7.93,-66.43 17.71,-98.81 9.77,-32.38 25.12,-61.22 46.02,-86.53 26.96,-32.75 58.15,-54.15 93.55,-64.2 35.4,-10.04 71.98,-15.07 109.74,-15.07l205.32 -1.11 0 122.81 -186.11 0c-39.1,0.74 -70.46,7.25 -94.06,19.54 -23.6,12.28 -36.07,42.98 -37.42,92.11l317.59 -1.12 0 122.81 -317.59 0c1.35,51.36 13.15,82.62 35.4,93.79 22.25,11.16 53.94,16.74 95.08,16.74l187.11 -1.11 0 122.81 -205.32 0z"/>
    <polygon id="_2_7" class="fil1" points="5676.71,3206.58 5530.05,3206.58 5530.05,2404.95 5676.71,2404.95 "/>
    <path id="_3_8" class="fil1" d="M6290.64 3206.58l-270.05 0c-79.56,0 -141.76,-24.75 -186.61,-74.25 -44.84,-49.49 -69.28,-117.41 -73.32,-203.75 -1.35,-39.45 2.36,-77.97 11.12,-115.56 8.76,-37.59 24.27,-72.01 46.52,-103.27 27.65,-37.96 59.51,-62.53 95.58,-73.69 36.08,-11.17 74.69,-16.75 115.82,-16.75l120.35 -1.11 0 -213.25 140.59 0 0 801.63zm-140.59 -126.16l0 -334.95c-5.39,0.75 -10.79,1.12 -16.18,1.12 -5.39,0 -10.45,0 -15.17,0 -6.74,0 -13.49,0 -20.23,0 -6.74,0 -13.49,0 -20.23,0 -12.14,0 -24.1,0.19 -35.9,0.56 -11.8,0.37 -23.77,1.3 -35.91,2.79 -10.79,0.74 -21.07,4.09 -30.84,10.05 -9.79,5.95 -18.72,13.02 -26.81,21.21 -14.16,15.63 -24.11,33.68 -29.84,54.15 -5.73,20.47 -9.27,41.12 -10.62,61.97 0,5.95 0,11.53 0,16.74 0,5.21 0,10.42 0,15.63 2.02,78.9 22.42,124.3 61.2,136.21 38.77,11.91 85.12,17.5 139.06,16.75 6.75,-0.74 13.66,-1.12 20.74,-1.12 7.08,0 13.99,0 20.73,0l0 -1.11z"/>
    <path class="fil1" d="M7145.08 3202c-45.86,0 -88.84,-3.91 -128.96,-11.72 -40.12,-7.82 -77.04,-31.45 -110.75,-70.9 -29,-33.49 -47.2,-71.08 -54.62,-112.76 -7.42,-41.69 -11.13,-84.48 -11.13,-128.4l0 -477.85 152.73 0 0 439.89c-0.68,74.43 6.74,131.37 22.25,170.82 15.51,39.45 63.39,59.18 143.62,59.18l180.03 -1.12 0 132.86 -193.17 0z"/>
    <path id="_1_9" class="fil1" d="M7552.67 3202l-147.66 0 0 -588.38 147.66 0 0 588.38zm0 -655.37l-147.66 0 0 -146.26 147.66 0 0 146.26z"/>
    <path id="_2_10" class="fil1" d="M7674.04 2613.62l540.1 0c68.78,1.48 122.73,17.11 161.84,46.89 39.1,29.77 58.99,86.34 59.67,169.7l0 371.79 -141.6 0 0 -352.81c0,-55.08 -10.62,-86.9 -31.87,-95.46 -21.23,-8.56 -53.09,-12.09 -95.58,-10.6 -6.74,0.74 -13.65,1.11 -20.72,1.11 -7.09,0 -14.34,0 -21.76,0l0 457.76 -143.62 0 0 -458.87 -164.85 0 0 458.87 -141.61 0 0 -588.38z"/>
    <path id="_3_11" class="fil1" d="M8708.72 3202l-147.66 0 0 -588.38 147.66 0 0 588.38zm0 -655.37l-147.66 0 0 -146.26 147.66 0 0 146.26z"/>
    <path id="_4_12" class="fil1" d="M8777.5 2613.62l99.12 0 0 -213.25 140.59 0 0 213.25 148.68 0 0 117.23 -148.68 0 0 237.81c-0.68,58.8 11.46,93.04 36.41,102.71 24.95,9.68 59.34,14.52 103.16,14.52 1.35,0 2.87,0 4.56,0 1.68,0 3.2,0 4.55,0l0 116.11 -128.45 0c-53.27,0 -93.39,-16.38 -120.36,-49.13 -26.98,-32.75 -40.46,-77.4 -40.46,-133.97l0 -288.05 -99.12 0 0 -117.23z"/>
    <path id="_5_13" class="fil1" d="M9486.51 3202c-37.76,0 -74.34,-5.02 -109.75,-15.07 -35.39,-10.05 -66.58,-31.08 -93.55,-63.08 -21.58,-26.05 -37.25,-55.83 -47.03,-89.32 -9.78,-33.5 -15.68,-67.74 -17.7,-102.72 0,-3.72 0,-7.44 0,-11.16 0,-3.72 0,-7.45 0,-11.17 0,-5.21 0,-10.23 0,-15.07 0,-4.84 0.34,-9.86 1.01,-15.07 2.02,-33.5 7.93,-66.43 17.7,-98.81 9.78,-32.38 25.12,-61.22 46.02,-86.53 26.97,-32.75 58.16,-54.15 93.55,-64.2 35.41,-10.04 71.99,-15.07 109.75,-15.07l205.32 -1.11 0 122.81 -186.11 0c-39.11,0.74 -70.46,7.25 -94.06,19.54 -23.6,12.28 -36.07,42.98 -37.42,92.11l317.59 -1.12 0 122.81 -317.59 0c1.35,51.36 13.15,82.62 35.4,93.79 22.25,11.16 53.94,16.74 95.07,16.74l187.12 -1.11 0 122.81 -205.32 0z"/>
    <path id="_6_14" class="fil1" d="M10275.41 3202l-270.05 0c-79.56,0 -141.76,-24.75 -186.61,-74.25 -44.84,-49.49 -69.28,-117.41 -73.32,-203.75 -1.35,-39.45 2.36,-77.97 11.13,-115.56 8.76,-37.59 24.26,-72.01 46.51,-103.27 27.65,-37.96 59.51,-62.53 95.59,-73.69 36.07,-11.17 74.68,-16.75 115.81,-16.75l120.35 -1.11 0 -213.25 140.59 0 0 801.63zm-140.59 -126.16l0 -334.95c-5.39,0.75 -10.78,1.12 -16.17,1.12 -5.4,0 -10.46,0 -15.18,0 -6.74,0 -13.49,0 -20.23,0 -6.74,0 -13.49,0 -20.23,0 -12.14,0 -24.1,0.19 -35.9,0.56 -11.8,0.37 -23.77,1.3 -35.91,2.79 -10.79,0.74 -21.07,4.09 -30.84,10.05 -9.79,5.95 -18.72,13.02 -26.81,21.21 -14.16,15.63 -24.11,33.68 -29.84,54.15 -5.73,20.47 -9.27,41.12 -10.62,61.97 0,5.95 0,11.53 0,16.74 0,5.21 0,10.42 0,15.63 2.02,78.9 22.42,124.3 61.2,136.21 38.77,11.91 85.12,17.5 139.06,16.75 6.75,-0.74 13.66,-1.12 20.74,-1.12 7.08,0 13.99,0 20.73,0l0 -1.11z"/>
    <rect class="fil3" x="3060.39" y="3516.02" width="7231.13" height="349.64"/>
    <g>
     <path class="fil4" d="M10125.72 1946.88l187.1 0c19.14,0 41.92,-0.3 41.92,28.03 0,28.1 -233.73,11.8 -233.73,36.53 0,24.72 339.36,11.8 339.36,88.21 0,76.42 -339.36,63.5 -339.36,88.22 0,24.72 233.73,8.42 233.73,36.52 0,27.89 -22.27,29.77 -41.92,29.77l-187.1 0c-30.12,0 -54.76,-24.64 -54.76,-54.76l0 -197.76c0,-30.12 24.64,-54.76 54.76,-54.76z"/>
     <path class="fil4" d="M2398.31 1390.64c0,0 -91.41,-177.74 -165.04,-256.46 0,0 -51.97,-49.59 -59.83,-57.76 -7.86,-8.18 -5.65,-21.04 0.96,-27.34 6.59,-6.27 30.77,-52.45 69.4,-52.45 0,0 5.43,-71.46 -5.36,-89.3 -10.82,-17.86 31.15,-48.63 31.15,-65.24 0,-16.63 -6.23,-95.98 7.91,-95.98 14.13,0 55.65,-7.48 52.35,-36.16 -3.31,-28.67 2.1,-36.97 -19.95,-55.26 -22.02,-18.29 -74.37,-118.41 -136.7,-120.91 -62.33,-2.5 -89.35,-14.95 -114.28,-27.43 -24.93,-12.45 -44.01,-16.2 -71.44,-16.2 -27.43,0 -83.53,12.04 -129.64,57.76 -46.13,45.7 -109.25,140.55 -109.25,222.69 0,82.16 13.41,86.28 -32.12,77.6 -45.53,-8.68 -110.93,-76.28 -182.16,-76.28 -71.2,0 -73.41,40.85 -232.71,40.85 -159.33,0 -113.8,-30.34 -220.02,-30.34 -106.2,0 -97.98,41.73 -146.04,41.73 -48.02,0 -134.01,11.99 -134.01,80.91 0,68.92 -17.71,100.53 26.54,161.23 44.25,60.67 63.84,207.95 63.84,277.49 0,69.55 -32.23,197.24 -11.99,230.12 20.24,32.88 62.57,85.96 122.64,85.96l36.76 0 0 222.28c0,0 -284.37,575.48 -284.37,878.36 0,302.88 -265.87,834.6 -222.14,858.16 43.75,23.56 109.37,14.88 108.89,29.71 -0.48,14.83 -79.81,59.16 -79.81,102.45 0,43.32 83.71,146.3 201.13,146.3 117.45,0 132.84,-38.49 132.84,-95.29 0,-56.78 -23.1,-76.99 -23.1,-108.75 0,-31.75 75.55,-45.19 75.55,-79.32 0,-34.14 23,-326.78 73.94,-477.38 50.91,-150.57 218.12,-787.25 374.25,-787.25 156.13,0 486.56,449.85 513.67,560.26 27.09,110.38 21.13,210.89 44.26,342.81 23.12,131.92 2.88,307.18 -14.45,383.24 -17.33,76.08 8.68,71.27 50.07,97.26 0,0 8.01,20.19 8.01,53.24 0,33.05 -0.56,60.58 56.15,71.59 56.73,11.01 159.11,49.56 191.05,73.24 0,0 14.35,13.75 65.56,13.75 51.2,0 178.41,17.62 240.07,-28.08 61.65,-45.69 -35.82,-65.52 -83.15,-110.67 -47.36,-45.14 -110.15,-109.59 -110.15,-129.4 0,-19.8 16.54,-7.71 15.99,-27.52 -0.55,-19.83 -23.29,-70.82 -48.77,-176.03 -25.48,-105.22 -26.59,-523.89 -26.59,-523.89l99.06 43.08 30 -28.73c0,0 -35.79,-15 -19.16,-34.56 16.66,-19.57 102.96,-145.41 102.96,-145.41 0,0 69.59,6.68 87.5,-1.25 17.93,-7.93 42.93,-37.5 45.02,-64.18 2.07,-26.66 -18.75,-65.44 -50.02,-88.34l127.23 -202.28 31.15 10.52 19.19 -34.49 -28.78 -40.26 74.31 0 0 -78.15 177.52 0 143.7 -72.98 0 -218.94 -126.35 -60.77 -178.43 0 0 -59.78 -287.4 0c0,0 -76.54,-27.6 -81.61,-43.44 -5.07,-15.87 -6.97,-80.55 -29.81,-111.63 -22.84,-31.06 6.03,-204.38 -35.99,-326.71zm-1160.01 -299.06c0,0 -68.22,-43.46 -164.66,-43.46l-74.88 0c0,0 -15.21,227.12 7,267.72 22.19,40.62 45.67,90.12 105.31,95.19l127.23 -319.45zm845.55 1197.73l243.22 0c0,0 55.52,62.69 60.6,81.73 5.07,19.04 5.07,74.3 5.07,74.3 0,0 9.32,8.32 9.32,18.49 0,10.19 -13.1,19.95 -28.7,20.69l0 134.35 43.95 0 0 79.91c0,0 -104.57,171 -125.99,170.26 -21.44,-0.72 -70.43,-346.37 -207.47,-579.73zm406.15 -0.99l182.23 0 -180 265.55 -2.23 -265.55zm-466.39 -203.17l-109.95 0c0,0 -61.97,-82.66 -61.97,-134.71 0,-52.04 -0.87,-72.33 36.15,-97.01 37.02,-24.69 181.66,-234.57 194.88,-233.68 13.22,0.89 84.66,306.87 81.13,324.52 -3.54,17.64 -130.53,3.55 -129.64,51.15 0.89,47.59 0.89,99.64 -10.6,89.73z"/>
     <path class="fil4" d="M3089.67 2186.08l31.56 -162.04 -6.03 -26.39 49.82 -0.55 50.09 0 20.61 27.35 11.78 0 -29.45 161.63 -16.42 0 -17.68 21.89 -60.19 0 -11.12 -21.94 -22.97 0.05zm105.35 -157.23l-9.66 -2.15 -8.41 5.33 -30.48 136.6 5.36 8.41 9.65 2.16 8.42 -5.34 30.47 -136.6 -5.35 -8.41z"/>
     <path class="fil4" d="M3204.78 2186.08l31.57 -162.04 23.57 0 20.21 -26.94 50.09 0 20.62 27.35 11.78 0 -29.46 161.63 -16.42 0 -17.68 21.89 -60.18 0 -11.13 -21.94 -22.97 0.05zm105.35 -157.23l-9.66 -2.15 -8.41 5.33 -30.47 136.6 5.35 8.41 9.66 2.16 8.41 -5.34 30.47 -136.6 -5.35 -8.41z"/>
     <path class="fil4" d="M3319.27 2186.08l31.57 -162.04 23.57 0 20.21 -26.94 50.09 0 20.62 27.35 11.78 0 -29.46 161.63 -16.42 0 -17.67 21.89 -60.19 0 -11.13 -21.94 -22.97 0.05zm105.35 -157.23l-9.65 -2.15 -8.42 5.33 -30.47 136.6 5.35 8.41 9.66 2.16 8.41 -5.34 30.48 -136.6 -5.36 -8.41z"/>
     <path class="fil4" d="M3433.77 2186.08l31.56 -162.04 23.58 0 20.2 -26.94 50.09 0 20.62 27.35 11.78 0 -29.45 161.63 -16.42 0 -17.68 21.89 -60.19 0 -11.13 -21.94 -22.96 0.05zm105.35 -157.23l-9.66 -2.15 -8.41 5.33 -30.48 136.6 5.35 8.41 9.66 2.16 8.42 -5.34 30.47 -136.6 -5.35 -8.41z"/>
     <path class="fil4" d="M3548.26 2186.08l31.56 -162.04 23.58 0 20.21 -26.94 50.09 0 20.62 27.35 11.78 0 -29.46 161.63 -16.42 0 -17.68 21.89 -60.19 0 -11.12 -21.94 -22.97 0.05zm105.35 -157.23l-9.66 -2.15 -8.41 5.33 -30.47 136.6 5.35 8.41 9.65 2.16 8.42 -5.34 30.47 -136.6 -5.35 -8.41z"/>
     <path class="fil4" d="M3662.75 2186.08l31.57 -162.04 23.57 0 20.21 -26.94 50.09 0 20.62 27.35 11.78 0 -29.46 161.63 -16.42 0 -17.68 21.89 -60.18 0 -11.13 -21.94 -22.97 0.05zm105.35 -157.23l-9.66 -2.15 -8.41 5.33 -30.47 136.6 5.35 8.41 9.66 2.16 8.41 -5.34 30.47 -136.6 -5.35 -8.41z"/>
     <path class="fil4" d="M3777.24 2186.08l31.57 -162.04 23.57 0 20.21 -26.94 50.09 0 20.62 27.35 11.78 0 -29.46 161.63 -16.42 0 -17.67 21.89 -60.19 0 -11.13 -21.94 -22.97 0.05zm105.35 -157.23l-9.65 -2.15 -8.42 5.33 -30.47 136.6 5.35 8.41 9.66 2.16 8.41 -5.34 30.48 -136.6 -5.36 -8.41z"/>
     <path class="fil4" d="M3891.74 2186.08l31.56 -162.04 23.58 0 20.2 -26.94 50.09 0 20.62 27.35 11.78 0 -29.45 161.63 -16.42 0 -17.68 21.89 -60.19 0 -11.13 -21.94 -22.96 0.05zm105.35 -157.23l-9.66 -2.15 -8.41 5.33 -30.48 136.6 5.35 8.41 9.66 2.16 8.42 -5.34 30.47 -136.6 -5.35 -8.41z"/>
     <path class="fil4" d="M4006.23 2186.08l31.56 -162.04 23.58 0 20.21 -26.94 50.09 0 20.62 27.35 11.78 0 -29.46 161.63 -16.42 0 -17.68 21.89 -60.19 0 -11.12 -21.94 -22.97 0.05zm105.35 -157.23l-9.66 -2.15 -8.41 5.33 -30.47 136.6 5.35 8.41 9.65 2.16 8.42 -5.34 30.47 -136.6 -5.35 -8.41z"/>
     <path class="fil4" d="M4120.72 2186.08l31.57 -162.04 23.57 0 20.21 -26.94 50.09 0 20.62 27.35 11.78 0 -29.46 161.63 -16.42 0 -17.68 21.89 -60.18 0 -11.13 -21.94 -22.97 0.05zm105.35 -157.23l-9.66 -2.15 -8.41 5.33 -30.47 136.6 5.35 8.41 9.66 2.16 8.41 -5.34 30.47 -136.6 -5.35 -8.41z"/>
     <path class="fil4" d="M4235.21 2186.08l31.57 -162.04 23.57 0 20.21 -26.94 50.09 0 20.62 27.35 11.78 0 -29.46 161.63 -16.42 0 -17.67 21.89 -60.19 0 -11.13 -21.94 -22.97 0.05zm105.35 -157.23l-9.65 -2.15 -8.42 5.33 -30.47 136.6 5.35 8.41 9.66 2.16 8.41 -5.34 30.48 -136.6 -5.36 -8.41z"/>
     <path class="fil4" d="M4349.71 2186.08l31.56 -162.04 23.57 0 20.21 -26.94 50.09 0 20.62 27.35 11.78 0 -29.45 161.63 -16.42 0 -17.68 21.89 -60.19 0 -11.13 -21.94 -22.96 0.05zm105.35 -157.23l-9.66 -2.15 -8.41 5.33 -30.48 136.6 5.35 8.41 9.66 2.16 8.42 -5.34 30.47 -136.6 -5.35 -8.41z"/>
     <path class="fil4" d="M4464.2 2186.08l31.56 -162.04 23.58 0 20.21 -26.94 50.09 0 20.62 27.35 11.77 0 -29.45 161.63 -16.42 0 -17.68 21.89 -60.19 0 -11.12 -21.94 -22.97 0.05zm105.35 -157.23l-9.66 -2.15 -8.41 5.33 -30.48 136.6 5.36 8.41 9.65 2.16 8.42 -5.34 30.47 -136.6 -5.35 -8.41z"/>
     <path class="fil4" d="M4578.69 2186.08l31.57 -162.04 23.57 0 20.21 -26.94 50.09 0 20.62 27.35 11.78 0 -29.46 161.63 -16.42 0 -17.68 21.89 -60.18 0 -11.13 -21.94 -22.97 0.05zm105.35 -157.23l-9.66 -2.15 -8.41 5.33 -30.47 136.6 5.35 8.41 9.66 2.16 8.41 -5.34 30.47 -136.6 -5.35 -8.41z"/>
     <path class="fil4" d="M4693.18 2186.08l31.57 -162.04 23.57 0 20.21 -26.94 50.09 0 20.62 27.35 11.78 0 -29.46 161.63 -16.42 0 -17.67 21.89 -60.19 0 -11.13 -21.94 -22.97 0.05zm105.35 -157.23l-9.65 -2.15 -8.42 5.33 -30.47 136.6 5.35 8.41 9.66 2.16 8.41 -5.34 30.48 -136.6 -5.36 -8.41z"/>
     <path class="fil4" d="M4807.68 2186.08l31.56 -162.04 23.57 0 20.21 -26.94 50.09 0 20.62 27.35 11.78 0 -29.45 161.63 -16.42 0 -17.68 21.89 -60.19 0 -11.13 -21.94 -22.96 0.05zm105.35 -157.23l-9.66 -2.15 -8.41 5.33 -30.48 136.6 5.35 8.41 9.66 2.16 8.42 -5.34 30.47 -136.6 -5.35 -8.41z"/>
     <path class="fil4" d="M4922.17 2186.08l31.56 -162.04 23.58 0 20.21 -26.94 50.09 0 20.61 27.35 11.78 0 -29.45 161.63 -16.42 0 -17.68 21.89 -60.19 0 -11.12 -21.94 -22.97 0.05zm105.35 -157.23l-9.66 -2.15 -8.41 5.33 -30.48 136.6 5.36 8.41 9.65 2.16 8.42 -5.34 30.47 -136.6 -5.35 -8.41z"/>
     <path class="fil4" d="M5036.66 2186.08l31.56 -162.04 23.58 0 20.21 -26.94 50.09 0 20.62 27.35 11.78 0 -29.46 161.63 -16.42 0 -17.68 21.89 -60.18 0 -11.13 -21.94 -22.97 0.05zm105.35 -157.23l-9.66 -2.15 -8.41 5.33 -30.47 136.6 5.35 8.41 9.66 2.16 8.41 -5.34 30.47 -136.6 -5.35 -8.41z"/>
     <path class="fil4" d="M5151.15 2186.08l31.57 -162.04 23.57 0 20.21 -26.94 50.09 0 20.62 27.35 11.78 0 -29.46 161.63 -16.42 0 -17.67 21.89 -60.19 0 -11.13 -21.94 -22.97 0.05zm105.35 -157.23l-9.65 -2.15 -8.42 5.33 -30.47 136.6 5.35 8.41 9.66 2.16 8.41 -5.34 30.48 -136.6 -5.36 -8.41z"/>
     <path class="fil4" d="M5265.65 2186.08l31.56 -162.04 23.57 0 20.21 -26.94 50.09 0 20.62 27.35 11.78 0 -29.45 161.63 -16.42 0 -17.68 21.89 -60.19 0 -11.13 -21.94 -22.96 0.05zm105.35 -157.23l-9.66 -2.15 -8.42 5.33 -30.47 136.6 5.35 8.41 9.66 2.16 8.42 -5.34 30.47 -136.6 -5.35 -8.41z"/>
     <path class="fil4" d="M5380.14 2186.08l31.56 -162.04 23.58 0 20.21 -26.94 50.09 0 20.61 27.35 11.78 0 -29.45 161.63 -16.42 0 -17.68 21.89 -60.19 0 -11.12 -21.94 -22.97 0.05zm105.35 -157.23l-9.66 -2.15 -8.41 5.33 -30.48 136.6 5.36 8.41 9.65 2.16 8.42 -5.34 30.47 -136.6 -5.35 -8.41z"/>
     <path class="fil4" d="M5494.62 2186.08l31.56 -162.04 23.58 0 20.21 -26.94 50.09 0 20.62 27.35 11.78 0 -29.46 161.63 -16.42 0 -17.68 21.89 -60.18 0 -11.13 -21.94 -22.97 0.05zm105.35 -157.23l-9.66 -2.15 -8.41 5.33 -30.47 136.6 5.35 8.41 9.66 2.16 8.41 -5.34 30.47 -136.6 -5.35 -8.41z"/>
     <path class="fil4" d="M5609.11 2186.08l31.57 -162.04 23.57 0 20.21 -26.94 50.09 0 20.62 27.35 11.78 0 -29.46 161.63 -16.42 0 -17.67 21.89 -60.19 0 -11.13 -21.94 -22.97 0.05zm105.35 -157.23l-9.65 -2.15 -8.42 5.33 -30.47 136.6 5.35 8.41 9.66 2.16 8.41 -5.34 30.48 -136.6 -5.36 -8.41z"/>
     <path class="fil4" d="M5723.61 2186.08l31.56 -162.04 23.57 0 20.21 -26.94 50.09 0 20.62 27.35 11.78 0 -29.46 161.63 -16.41 0 -17.68 21.89 -60.19 0 -11.13 -21.94 -22.96 0.05zm105.35 -157.23l-9.66 -2.15 -8.42 5.33 -30.47 136.6 5.35 8.41 9.66 2.16 8.42 -5.34 30.47 -136.6 -5.35 -8.41z"/>
     <path class="fil4" d="M5838.1 2186.08l31.56 -162.04 23.58 0 20.21 -26.94 50.09 0 20.61 27.35 11.78 0 -29.45 161.63 -16.42 0 -17.68 21.89 -60.19 0 -11.12 -21.94 -22.97 0.05zm105.35 -157.23l-9.66 -2.15 -8.41 5.33 -30.48 136.6 5.36 8.41 9.65 2.16 8.42 -5.34 30.47 -136.6 -5.35 -8.41z"/>
     <path class="fil4" d="M5952.59 2186.08l31.56 -162.04 23.58 0 20.21 -26.94 50.09 0 20.62 27.35 11.78 0 -29.46 161.63 -16.42 0 -17.68 21.89 -60.18 0 -11.13 -21.94 -22.97 0.05zm105.35 -157.23l-9.66 -2.15 -8.41 5.33 -30.47 136.6 5.35 8.41 9.66 2.16 8.41 -5.34 30.47 -136.6 -5.35 -8.41z"/>
     <path class="fil4" d="M6067.08 2186.08l31.57 -162.04 23.57 0 20.21 -26.94 50.09 0 20.62 27.35 11.78 0 -29.46 161.63 -16.42 0 -17.67 21.89 -60.19 0 -11.13 -21.94 -22.97 0.05zm105.35 -157.23l-9.65 -2.15 -8.42 5.33 -30.47 136.6 5.35 8.41 9.66 2.16 8.41 -5.34 30.48 -136.6 -5.36 -8.41z"/>
     <path class="fil4" d="M6181.58 2186.08l31.56 -162.04 23.57 0 20.21 -26.94 50.09 0 20.62 27.35 11.78 0 -29.46 161.63 -16.41 0 -17.68 21.89 -60.19 0 -11.13 -21.94 -22.96 0.05zm105.35 -157.23l-9.66 -2.15 -8.42 5.33 -30.47 136.6 5.35 8.41 9.66 2.16 8.41 -5.34 30.48 -136.6 -5.35 -8.41z"/>
     <path class="fil4" d="M6296.07 2186.08l31.56 -162.04 23.58 0 20.21 -26.94 50.09 0 20.61 27.35 11.78 0 -29.45 161.63 -16.42 0 -17.68 21.89 -60.19 0 -11.12 -21.94 -22.97 0.05zm105.35 -157.23l-9.66 -2.15 -8.41 5.33 -30.48 136.6 5.36 8.41 9.65 2.16 8.42 -5.34 30.47 -136.6 -5.35 -8.41z"/>
     <path class="fil4" d="M6410.56 2186.08l31.56 -162.04 23.58 0 20.21 -26.94 50.09 0 20.62 27.35 11.78 0 -29.46 161.63 -16.42 0 -17.68 21.89 -60.18 0 -11.13 -21.94 -22.97 0.05zm105.35 -157.23l-9.66 -2.15 -8.41 5.33 -30.47 136.6 5.35 8.41 9.66 2.16 8.41 -5.34 30.47 -136.6 -5.35 -8.41z"/>
     <path class="fil4" d="M6525.05 2186.08l31.57 -162.04 23.57 0 20.21 -26.94 50.09 0 20.62 27.35 11.78 0 -29.46 161.63 -16.42 0 -17.67 21.89 -60.19 0 -11.13 -21.94 -22.97 0.05zm105.35 -157.23l-9.65 -2.15 -8.42 5.33 -30.47 136.6 5.35 8.41 9.66 2.16 8.41 -5.34 30.47 -136.6 -5.35 -8.41z"/>
     <path class="fil4" d="M6639.55 2186.08l31.56 -162.04 23.57 0 20.21 -26.94 50.09 0 20.62 27.35 11.78 0 -29.46 161.63 -16.41 0 -17.68 21.89 -60.19 0 -11.13 -21.94 -22.96 0.05zm105.35 -157.23l-9.66 -2.15 -8.42 5.33 -30.47 136.6 5.35 8.41 9.66 2.16 8.41 -5.34 30.48 -136.6 -5.35 -8.41z"/>
     <path class="fil4" d="M6754.04 2186.08l31.56 -162.04 23.58 0 20.21 -26.94 50.09 0 20.61 27.35 11.78 0 -29.45 161.63 -16.42 0 -17.68 21.89 -60.19 0 -11.12 -21.94 -22.97 0.05zm105.35 -157.23l-9.66 -2.15 -8.41 5.33 -30.48 136.6 5.36 8.41 9.65 2.16 8.42 -5.34 30.47 -136.6 -5.35 -8.41z"/>
     <path class="fil4" d="M6868.53 2186.08l31.56 -162.04 23.58 0 20.21 -26.94 50.09 0 20.62 27.35 11.78 0 -29.46 161.63 -16.42 0 -17.68 21.89 -60.18 0 -11.13 -21.94 -22.97 0.05zm105.35 -157.23l-9.66 -2.15 -8.41 5.33 -30.47 136.6 5.35 8.41 9.66 2.16 8.41 -5.34 30.47 -136.6 -5.35 -8.41z"/>
     <path class="fil4" d="M6983.02 2186.08l31.57 -162.04 23.57 0 20.21 -26.94 50.09 0 20.62 27.35 11.78 0 -29.46 161.63 -16.42 0 -17.67 21.89 -60.19 0 -11.13 -21.94 -22.97 0.05zm105.35 -157.23l-9.65 -2.15 -8.42 5.33 -30.47 136.6 5.35 8.41 9.66 2.16 8.41 -5.34 30.47 -136.6 -5.35 -8.41z"/>
     <path class="fil4" d="M7097.51 2186.08l31.57 -162.04 23.57 0 20.21 -26.94 50.09 0 20.62 27.35 11.78 0 -29.46 161.63 -16.41 0 -17.68 21.89 -60.19 0 -11.13 -21.94 -22.97 0.05zm105.36 -157.23l-9.66 -2.15 -8.42 5.33 -30.47 136.6 5.35 8.41 9.66 2.16 8.41 -5.34 30.48 -136.6 -5.35 -8.41z"/>
     <path class="fil4" d="M7212.01 2186.08l31.56 -162.04 23.58 0 20.21 -26.94 50.09 0 20.61 27.35 11.78 0 -29.45 161.63 -16.42 0 -17.68 21.89 -60.19 0 -11.12 -21.94 -22.97 0.05zm105.35 -157.23l-9.66 -2.15 -8.41 5.33 -30.48 136.6 5.36 8.41 9.65 2.16 8.42 -5.34 30.47 -136.6 -5.35 -8.41z"/>
     <path class="fil4" d="M7326.5 2186.08l31.56 -162.04 23.58 0 20.21 -26.94 50.09 0 20.62 27.35 11.78 0 -29.46 161.63 -16.42 0 -17.68 21.89 -60.18 0 -11.13 -21.94 -22.97 0.05zm105.35 -157.23l-9.66 -2.15 -8.41 5.33 -30.47 136.6 5.35 8.41 9.66 2.16 8.41 -5.34 30.47 -136.6 -5.35 -8.41z"/>
     <path class="fil4" d="M7440.99 2186.08l31.57 -162.04 23.57 0 20.21 -26.94 50.09 0 20.62 27.35 11.78 0 -29.46 161.63 -16.42 0 -17.67 21.89 -60.19 0 -11.13 -21.94 -22.97 0.05zm105.35 -157.23l-9.65 -2.15 -8.42 5.33 -30.47 136.6 5.35 8.41 9.66 2.16 8.41 -5.34 30.47 -136.6 -5.35 -8.41z"/>
     <path class="fil4" d="M7555.48 2186.08l31.57 -162.04 23.57 0 20.21 -26.94 50.09 0 20.62 27.35 11.78 0 -29.46 161.63 -16.41 0 -17.68 21.89 -60.19 0 -11.13 -21.94 -22.97 0.05zm105.36 -157.23l-9.66 -2.15 -8.42 5.33 -30.47 136.6 5.35 8.41 9.66 2.16 8.41 -5.34 30.48 -136.6 -5.35 -8.41z"/>
     <path class="fil4" d="M7669.98 2186.08l31.56 -162.04 23.58 0 20.21 -26.94 50.09 0 20.61 27.35 11.78 0 -29.45 161.63 -16.42 0 -17.68 21.89 -60.19 0 -11.12 -21.94 -22.97 0.05zm105.35 -157.23l-9.66 -2.15 -8.41 5.33 -30.48 136.6 5.36 8.41 9.65 2.16 8.42 -5.34 30.47 -136.6 -5.35 -8.41z"/>
     <path class="fil4" d="M7784.47 2186.08l31.56 -162.04 23.58 0 20.21 -26.94 50.09 0 20.62 27.35 11.78 0 -29.46 161.63 -16.42 0 -17.68 21.89 -60.18 0 -11.13 -21.94 -22.97 0.05zm105.35 -157.23l-9.66 -2.15 -8.41 5.33 -30.47 136.6 5.35 8.41 9.66 2.16 8.41 -5.34 30.47 -136.6 -5.35 -8.41z"/>
     <path class="fil4" d="M7898.96 2186.08l31.57 -162.04 23.57 0 20.21 -26.94 50.09 0 20.62 27.35 11.78 0 -29.46 161.63 -16.42 0 -17.67 21.89 -60.19 0 -11.13 -21.94 -22.97 0.05zm105.35 -157.23l-9.65 -2.15 -8.42 5.33 -30.47 136.6 5.35 8.41 9.66 2.16 8.41 -5.34 30.47 -136.6 -5.35 -8.41z"/>
     <path class="fil4" d="M8013.45 2186.08l31.57 -162.04 23.57 0 20.21 -26.94 50.09 0 20.62 27.35 11.78 0 -29.46 161.63 -16.41 0 -17.68 21.89 -60.19 0 -11.13 -21.94 -22.97 0.05zm105.36 -157.23l-9.66 -2.15 -8.42 5.33 -30.47 136.6 5.35 8.41 9.66 2.16 8.41 -5.34 30.48 -136.6 -5.35 -8.41z"/>
     <path class="fil4" d="M8127.95 2186.08l31.56 -162.04 23.58 0 20.2 -26.94 50.1 0 20.61 27.35 11.78 0 -29.45 161.63 -16.42 0 -17.68 21.89 -60.19 0 -11.12 -21.94 -22.97 0.05zm105.35 -157.23l-9.66 -2.15 -8.41 5.33 -30.48 136.6 5.36 8.41 9.65 2.16 8.42 -5.34 30.47 -136.6 -5.35 -8.41z"/>
     <path class="fil4" d="M8242.44 2186.08l31.56 -162.04 23.58 0 20.21 -26.94 50.09 0 20.62 27.35 11.78 0 -29.46 161.63 -16.42 0 -17.68 21.89 -60.18 0 -11.13 -21.94 -22.97 0.05zm105.35 -157.23l-9.66 -2.15 -8.41 5.33 -30.47 136.6 5.35 8.41 9.65 2.16 8.42 -5.34 30.47 -136.6 -5.35 -8.41z"/>
     <path class="fil4" d="M8356.93 2186.08l31.57 -162.04 23.57 0 20.21 -26.94 50.09 0 20.62 27.35 11.78 0 -29.46 161.63 -16.42 0 -17.67 21.89 -60.19 0 -11.13 -21.94 -22.97 0.05zm105.35 -157.23l-9.65 -2.15 -8.42 5.33 -30.47 136.6 5.35 8.41 9.66 2.16 8.41 -5.34 30.47 -136.6 -5.35 -8.41z"/>
     <path class="fil4" d="M8471.42 2186.08l31.57 -162.04 23.57 0 20.21 -26.94 50.09 0 20.62 27.35 11.78 0 -29.46 161.63 -16.42 0 -17.67 21.89 -60.19 0 -11.13 -21.94 -22.97 0.05zm105.35 -157.23l-9.65 -2.15 -8.42 5.33 -30.47 136.6 5.35 8.41 9.66 2.16 8.41 -5.34 30.48 -136.6 -5.36 -8.41z"/>
     <path class="fil4" d="M8585.92 2186.08l31.56 -162.04 23.58 0 20.2 -26.94 50.1 0 20.61 27.35 11.78 0 -29.45 161.63 -16.42 0 -17.68 21.89 -60.19 0 -11.12 -21.94 -22.97 0.05zm105.35 -157.23l-9.66 -2.15 -8.41 5.33 -30.48 136.6 5.36 8.41 9.65 2.16 8.42 -5.34 30.47 -136.6 -5.35 -8.41z"/>
     <path class="fil4" d="M8700.41 2186.08l31.56 -162.04 23.58 0 20.21 -26.94 50.09 0 20.62 27.35 11.78 0 -29.46 161.63 -16.42 0 -17.68 21.89 -60.18 0 -11.13 -21.94 -22.97 0.05zm105.35 -157.23l-9.66 -2.15 -8.41 5.33 -30.47 136.6 5.35 8.41 9.65 2.16 8.42 -5.34 30.47 -136.6 -5.35 -8.41z"/>
     <path class="fil4" d="M8814.9 2186.08l31.57 -162.04 23.57 0 20.21 -26.94 50.09 0 20.62 27.35 11.78 0 -29.46 161.63 -16.42 0 -17.67 21.89 -60.19 0 -11.13 -21.94 -22.97 0.05zm105.35 -157.23l-9.65 -2.15 -8.42 5.33 -30.47 136.6 5.35 8.41 9.66 2.16 8.41 -5.34 30.47 -136.6 -5.35 -8.41z"/>
     <path class="fil4" d="M8929.39 2186.08l31.57 -162.04 23.57 0 20.21 -26.94 50.09 0 20.62 27.35 11.78 0 -29.46 161.63 -16.42 0 -17.67 21.89 -60.19 0 -11.13 -21.94 -22.97 0.05zm105.35 -157.23l-9.65 -2.15 -8.42 5.33 -30.47 136.6 5.35 8.41 9.66 2.16 8.41 -5.34 30.48 -136.6 -5.36 -8.41z"/>
     <path class="fil4" d="M9043.89 2186.08l31.56 -162.04 23.58 0 20.2 -26.94 50.09 0 20.62 27.35 11.78 0 -29.45 161.63 -16.42 0 -17.68 21.89 -60.19 0 -11.13 -21.94 -22.96 0.05zm105.35 -157.23l-9.66 -2.15 -8.41 5.33 -30.48 136.6 5.35 8.41 9.66 2.16 8.42 -5.34 30.47 -136.6 -5.35 -8.41z"/>
     <path class="fil4" d="M9158.38 2186.08l31.56 -162.04 23.58 0 20.21 -26.94 50.09 0 20.62 27.35 11.78 0 -29.46 161.63 -16.42 0 -17.68 21.89 -60.18 0 -11.13 -21.94 -22.97 0.05zm105.35 -157.23l-9.66 -2.15 -8.41 5.33 -30.47 136.6 5.35 8.41 9.65 2.16 8.42 -5.34 30.47 -136.6 -5.35 -8.41z"/>
     <path class="fil4" d="M9272.87 2186.08l31.57 -162.04 23.57 0 20.21 -26.94 50.09 0 20.62 27.35 11.78 0 -29.46 161.63 -16.42 0 -17.68 21.89 -60.18 0 -11.13 -21.94 -22.97 0.05zm105.35 -157.23l-9.66 -2.15 -8.41 5.33 -30.47 136.6 5.35 8.41 9.66 2.16 8.41 -5.34 30.47 -136.6 -5.35 -8.41z"/>
     <path class="fil4" d="M9387.36 2186.08l31.57 -162.04 23.57 0 20.21 -26.94 50.09 0 20.62 27.35 11.78 0 -29.46 161.63 -16.42 0 -17.67 21.89 -60.19 0 -11.13 -21.94 -22.97 0.05zm105.35 -157.23l-9.65 -2.15 -8.42 5.33 -30.47 136.6 5.35 8.41 9.66 2.16 8.41 -5.34 30.48 -136.6 -5.36 -8.41z"/>
     <path class="fil4" d="M9501.86 2186.08l31.56 -162.04 23.58 0 20.2 -26.94 50.09 0 20.62 27.35 11.78 0 -29.45 161.63 -16.42 0 -17.68 21.89 -60.19 0 -11.13 -21.94 -22.96 0.05zm105.35 -157.23l-9.66 -2.15 -8.41 5.33 -30.48 136.6 5.35 8.41 9.66 2.16 8.42 -5.34 30.47 -136.6 -5.35 -8.41z"/>
     <path class="fil4" d="M9616.35 2186.08l31.56 -162.04 23.58 0 20.21 -26.94 50.09 0 20.62 27.35 11.78 0 -29.46 161.63 -16.42 0 -17.68 21.89 -60.19 0 -11.12 -21.94 -22.97 0.05zm105.35 -157.23l-9.66 -2.15 -8.41 5.33 -30.47 136.6 5.35 8.41 9.65 2.16 8.42 -5.34 30.47 -136.6 -5.35 -8.41z"/>
     <path class="fil4" d="M9730.84 2186.08l31.57 -162.04 23.57 0 20.21 -26.94 50.09 0 20.62 27.35 11.78 0 -29.46 161.63 -16.42 0 -17.68 21.89 -60.18 0 -11.13 -21.94 -22.97 0.05zm105.35 -157.23l-9.66 -2.15 -8.41 5.33 -30.47 136.6 5.35 8.41 9.66 2.16 8.41 -5.34 30.47 -136.6 -5.35 -8.41z"/>
     <path class="fil4" d="M9845.33 2186.08l31.57 -162.04 23.57 0 20.21 -26.94 50.09 0 20.62 27.35 11.78 0 -29.46 161.63 -16.42 0 -17.67 21.89 -60.19 0 -11.13 -21.94 -22.97 0.05zm105.35 -157.23l-9.65 -2.15 -8.42 5.33 -30.47 136.6 5.35 8.41 9.66 2.16 8.41 -5.34 30.48 -136.6 -5.36 -8.41z"/>
     <path class="fil4" d="M9959.83 2186.08l31.56 -162.04 23.58 0 20.2 -26.94 50.09 0 20.62 27.35 11.78 0 -29.45 161.63 -16.42 0 -17.68 21.89 -60.19 0 -11.13 -21.94 -22.96 0.05zm105.35 -157.23l-9.66 -2.15 -8.41 5.33 -30.48 136.6 5.35 8.41 9.66 2.16 8.42 -5.34 30.47 -136.6 -5.35 -8.41z"/>
    </g>
   </g>
  </g>
 </g>
</svg>
