<?xml version="1.0" encoding="UTF-8"?>
<svg xmlns="http://www.w3.org/2000/svg" version="1.1" viewBox="0 0 196.4 196.6">
  <defs>
    <style>
      .cls-1 {
        fill: #fff;
      }

      .cls-2 {
        fill-rule: evenodd;
      }
    </style>
  </defs>
  <!-- Generator: Adobe Illustrator 28.7.8, SVG Export Plug-In . SVG Version: 1.2.0 Build 200)  -->
  <g>
    <g id="Layer_1">
      <g>
        <circle class="cls-1" cx="98.2" cy="98.3" r="96"/>
        <g>
          <path class="cls-2" d="M162.1,88.2h7c.7,0,1.6,0,1.6,1s-8.7.4-8.7,1.4,12.6.4,12.6,3.3-12.6,2.4-12.6,3.3,8.7.3,8.7,1.4-.8,1.1-1.6,1.1h-7c-1.1,0-2-.9-2-2v-7.4c0-1.1.9-2,2-2h0Z"/>
          <path class="cls-2" d="M113.2,67.5s-3.4-6.6-6.1-9.5c0,0-1.9-1.8-2.2-2.1-.3-.3-.2-.8,0-1s1.1-2,2.6-2c0,0,.2-2.7-.2-3.3-.4-.7,1.2-1.8,1.2-2.4s-.2-3.6.3-3.6,2.1-.3,1.9-1.3c0-1.1,0-1.4-.7-2.1-.8-.7-2.8-4.4-5.1-4.5-2.3,0-3.3-.6-4.3-1-.9-.5-1.6-.6-2.7-.6s-3.1.4-4.8,2.1c-1.7,1.7-4.1,5.2-4.1,8.3s.5,3.2-1.2,2.9-4.1-2.8-6.8-2.8-2.7,1.5-8.7,1.5-4.2-1.1-8.2-1.1-3.6,1.6-5.4,1.6-5,.4-5,3-.7,3.7,1,6c1.6,2.3,2.4,7.7,2.4,10.3s-1.2,7.3-.4,8.6,2.3,3.2,4.6,3.2h1.4v8.3s-10.6,21.4-10.6,32.7-9.9,31.1-8.3,31.9c1.6.9,4.1.6,4.1,1.1s-3,2.2-3,3.8,3.1,5.4,7.5,5.4,4.9-1.4,4.9-3.5-.9-2.9-.9-4,2.8-1.7,2.8-3,.9-12.2,2.8-17.8c1.9-5.6,8.1-29.3,13.9-29.3s18.1,16.7,19.1,20.8.8,7.8,1.6,12.8c.9,4.9,0,11.4-.5,14.3-.6,2.8.3,2.7,1.9,3.6,0,0,.3.8.3,2s0,2.3,2.1,2.7,5.9,1.8,7.1,2.7c0,0,.5.5,2.4.5s6.6.7,8.9-1-1.3-2.4-3.1-4.1c-1.8-1.7-4.1-4.1-4.1-4.8s.6-.3.6-1-.9-2.6-1.8-6.5-1-19.5-1-19.5l3.7,1.6,1.1-1.1s-1.3-.6-.7-1.3c.6-.7,3.8-5.4,3.8-5.4,0,0,2.6.2,3.3,0,.7-.3,1.6-1.4,1.7-2.4,0-1-.7-2.4-1.9-3.3l4.7-7.5,1.2.4.7-1.3-1.1-1.5h2.8v-2.9h6.6l5.3-2.7v-8.1l-4.7-2.3h-6.6v-2.2h-10.7s-2.8-1-3-1.6-.3-3-1.1-4.2c-.8-1.2.2-7.6-1.3-12.2v-.3ZM70,56.4s-2.5-1.6-6.1-1.6h-2.8s-.6,8.5.3,10c.8,1.5,1.7,3.4,3.9,3.5l4.7-11.9ZM101.5,100.9h9s2.1,2.3,2.3,3c.2.7.2,2.8.2,2.8,0,0,.3.3.3.7s-.5.7-1.1.8v5h1.6v3s-3.9,6.4-4.7,6.3c-.8,0-2.6-12.9-7.7-21.6h0ZM116.6,100.9h6.8l-6.7,9.9v-9.9h-.1ZM99.3,93.3h-4.1s-2.3-3.1-2.3-5,0-2.7,1.3-3.6c1.4-.9,6.8-8.7,7.3-8.7s3.1,11.4,3,12.1-4.9,0-4.8,1.9c0,1.8,0,3.7-.4,3.3Z"/>
          <path class="cls-2" d="M138.9,97.1l1.2-6-.2-1h3.8l.8,1h.4l-1.1,6h-.6l-.7.8h-2.2l-.4-.8h-1ZM142.8,91.2h-.7c0,0-1.1,5.2-1.1,5.2l.2.3h.7c0,0,1.1-5.2,1.1-5.2l-.2-.3Z"/>
          <path class="cls-2" d="M143.2,97.1l1.2-6h.9l.8-1h1.9l.8,1h.4l-1.1,6h-.6l-.7.8h-2.2l-.4-.8h-1ZM147.1,91.2h-.7c0,0-1.1,5.2-1.1,5.2l.2.3h.7c0,0,1.1-5.2,1.1-5.2l-.2-.3Z"/>
          <path class="cls-2" d="M147.5,97.1l1.2-6h.9l.8-1h1.9l.8,1h.4l-1.1,6h-.6l-.7.8h-2.2l-.4-.8h-1ZM151.4,91.2h-.7c0,0-1.1,5.2-1.1,5.2l.2.3h.7c0,0,1.1-5.2,1.1-5.2l-.2-.3Z"/>
          <path class="cls-2" d="M138.9,97.1l1.2-6h.9l.8-1h1.9l.8,1h.4l-1.1,6h-.6l-.7.8h-2.2l-.4-.8h-1ZM142.8,91.2h-.7c0,0-1.1,5.2-1.1,5.2l.2.3h.7c0,0,1.1-5.2,1.1-5.2l-.2-.3h0Z"/>
          <path class="cls-2" d="M143.2,97.1l1.2-6h.9l.8-1h1.9l.8,1h.4l-1.1,6h-.6l-.7.8h-2.2l-.4-.8h-1ZM147.1,91.2h-.7c0,0-1.1,5.2-1.1,5.2l.2.3h.7c0,0,1.1-5.2,1.1-5.2l-.2-.3Z"/>
          <path class="cls-2" d="M147.4,97.1l1.2-6h.9l.8-1h1.9l.8,1h.4l-1.1,6h-.6l-.7.8h-2.2l-.4-.8h-1ZM151.4,91.2h-.7c0,0-1.1,5.2-1.1,5.2l.2.3h.7c0,0,1.1-5.2,1.1-5.2l-.2-.3Z"/>
          <path class="cls-2" d="M151.7,97.1l1.2-6h.9l.8-1h1.9l.8,1h.4l-1.1,6h-.6l-.7.8h-2.2l-.4-.8h-1ZM155.6,91.2h-.7c0,0-1.1,5.2-1.1,5.2l.2.3h.7c0,0,1.1-5.2,1.1-5.2l-.2-.3Z"/>
          <path class="cls-2" d="M156,97.1l1.2-6h.9l.8-1h1.9l.8,1h.4l-1.1,6h-.6l-.7.8h-2.2l-.4-.8h-1ZM159.9,91.2h-.7c0,0-1.1,5.2-1.1,5.2l.2.3h.7c0,0,1.1-5.2,1.1-5.2l-.2-.3h0Z"/>
        </g>
      </g>
      <path class="cls-2" d="M89.4,125.4"/>
    </g>
  </g>
</svg>